<svg width="512" height="512" viewBox="0 0 512 512" fill="none" xmlns="http://www.w3.org/2000/svg">
<g clip-path="url(#clip0_90_12)">
<path d="M256 512C190.028 512 127.794 503.2 80.762 487.221C14.012 464.543 0 435.495 0 415.121C0 388.542 23.749 369.916 43.671 358.972C50.934 354.983 60.051 357.636 64.04 364.896C68.029 372.157 65.377 381.277 58.116 385.265C40.248 395.081 30 405.963 30 415.121C30 426.322 45.87 443.682 90.413 458.815C134.418 473.767 193.225 482 256 482C318.775 482 377.582 473.767 421.587 458.815C466.13 443.683 482 426.322 482 415.121C482 405.963 471.752 395.081 453.884 385.264C446.623 381.276 443.971 372.156 447.96 364.895C451.947 357.635 461.066 354.982 468.329 358.971C488.251 369.916 512 388.542 512 415.121C512 435.495 497.988 464.543 431.238 487.221C384.206 503.2 321.972 512 256 512Z" fill="#1300BC"/>
<path d="M468.329 358.972C461.066 354.983 451.947 357.636 447.96 364.896C443.971 372.157 446.623 381.277 453.884 385.265C471.752 395.081 482 405.963 482 415.121C482 426.322 466.13 443.682 421.587 458.815C377.582 473.767 318.775 482 256 482H255.996V512H256C321.972 512 384.206 503.2 431.238 487.221C497.988 464.543 512 435.495 512 415.121C512 388.542 488.251 369.916 468.329 358.972Z" fill="#5765FE"/>
<path d="M255.999 450.47C213.42 450.47 173.201 445.733 142.751 437.13C105.498 426.607 86.6094 411.373 86.6094 391.855C86.6094 372.336 105.498 357.104 142.751 346.581C173.201 337.978 213.42 333.241 255.999 333.241C298.578 333.241 338.797 337.978 369.247 346.581C406.5 357.104 425.389 372.337 425.389 391.855C425.389 411.373 406.5 426.607 369.247 437.13C338.797 445.732 298.578 450.47 255.999 450.47ZM116.863 391.854C118.922 394.877 128.937 402.738 156.353 409.72C183.566 416.652 218.955 420.469 255.998 420.469C293.041 420.469 328.431 416.652 355.644 409.72C383.06 402.738 393.075 394.876 395.134 391.854C393.074 388.832 383.059 380.971 355.643 373.988C328.43 367.057 293.042 363.24 255.998 363.24C218.954 363.24 183.566 367.057 156.353 373.988C128.938 380.972 118.923 388.832 116.863 391.854Z" fill="#1300BC"/>
<path d="M369.248 346.58C338.798 337.977 298.579 333.24 256 333.24H255.996V363.24H256C293.044 363.24 328.432 367.057 355.645 373.988C383.061 380.971 393.077 388.832 395.136 391.854C393.076 394.877 383.062 402.738 355.646 409.72C328.433 416.652 293.044 420.469 256 420.469H255.996V450.469H256C298.579 450.469 338.798 445.732 369.248 437.129C406.501 426.606 425.39 411.372 425.39 391.854C425.39 372.336 406.501 357.103 369.248 346.58Z" fill="#5765FE"/>
<path d="M255.999 0C179.111 0 116.559 62.552 116.559 139.439C116.559 187.33 174.742 292.576 223.551 372.433C230.517 383.831 242.647 390.634 255.999 390.634C269.352 390.634 281.481 383.83 288.447 372.433C337.257 292.576 395.439 187.33 395.439 139.439C395.439 62.552 332.887 0 255.999 0ZM255.999 185.911C225.095 185.911 199.952 160.769 199.952 129.865C199.952 98.962 225.095 73.82 255.999 73.82C286.903 73.82 312.046 98.962 312.046 129.865C312.046 160.77 286.903 185.911 255.999 185.911Z" fill="#5765FE"/>
<path d="M256 0H255.996V73.82H256C286.904 73.82 312.047 98.962 312.047 129.865C312.047 160.769 286.904 185.911 256 185.911H255.996V390.634H256C269.353 390.634 281.482 383.83 288.448 372.433C337.258 292.576 395.44 187.33 395.44 139.439C395.44 62.552 332.888 0 256 0Z" fill="#1300BC"/>
</g>
<defs>
<clipPath id="clip0_90_12">
<rect width="512" height="512" fill="white"/>
</clipPath>
</defs>
</svg>
